<svg width="140" height="140" fill="none" xmlns="http://www.w3.org/2000/svg"><path d="M59.063 28.438c0 1.207-.98 2.187-2.188 2.187H78.75a2.188 2.188 0 010-4.375H56.875c1.208 0 2.188.98 2.188 2.188zm37.187 52.5c0 1.207-.98 2.187-2.188 2.187h21.876a2.187 2.187 0 110-4.375H94.062c1.209 0 2.188.98 2.188 2.188z" fill="#E91609"/><path fill-rule="evenodd" clip-rule="evenodd" d="M132.66 65.014c3.588 4.12 3.59 10.24.007 14.349 4.265 1.493 7.333 5.556 7.333 10.325a10.93 10.93 0 01-10.938 10.937H85.488c.614-1.697.836-2.67 1.132-4.375h42.442a6.524 6.524 0 004.642-1.921c4.122-4.123 1.166-11.204-4.642-11.204h-13.124a2.187 2.187 0 110-4.375h8.476a6.52 6.52 0 004.641-1.921c4.123-4.123 1.167-11.204-4.641-11.204-38.726 0-40.526-.202-41.894.473-.15.074-.294.158-.482.255-.807-1.512-1.325-2.322-2.317-3.726.55-.306 1.125-.562 1.719-.768a10.906 10.906 0 01-.496-13.734H70a2.188 2.188 0 010-4.375h15.313a6.57 6.57 0 006.562-6.563 6.57 6.57 0 00-6.563-6.562H78.75a2.188 2.188 0 010-4.375h10.938a6.57 6.57 0 006.562-6.563 6.57 6.57 0 00-6.563-6.562H50.313a6.57 6.57 0 00-6.563 6.563 6.57 6.57 0 006.563 6.562h6.562a2.188 2.188 0 010 4.375H45.937a6.57 6.57 0 00-6.562 6.563 6.57 6.57 0 006.412 6.56c-3.185-.034-5.016.087-8.242.444-4.856-5.809-2.455-14.634 4.585-17.257C35.9 19.908 40.92 8.75 50.312 8.75h39.376c6.03 0 10.937 4.907 10.937 10.938 0 4.692-2.971 8.703-7.13 10.252a10.909 10.909 0 01.561 13.81h35.006c6.031 0 10.938 4.907 10.938 10.938 0 4.77-3.072 8.835-7.34 10.326zM87.282 83.125h6.78a2.188 2.188 0 000-4.375H86.62c.355 1.684.507 2.642.662 4.375zm41.78-21.875a6.57 6.57 0 006.563-6.563 6.57 6.57 0 00-6.563-6.562H89.687a6.57 6.57 0 00-6.562 6.563 6.57 6.57 0 006.563 6.562h39.374z" fill="#E91609"/><path fill-rule="evenodd" clip-rule="evenodd" d="M37.545 44.192C16.35 47.215 0 65.482 0 87.5c0 24.124 19.626 43.75 43.75 43.75 19.553 0 36.15-12.894 41.738-30.625.614-1.697.836-2.67 1.132-4.375a43.913 43.913 0 00.662-13.125c-.155-1.733-.307-2.691-.662-4.375a43.44 43.44 0 00-4.582-12.397c-.807-1.512-1.325-2.322-2.317-3.726a44.045 44.045 0 00-16.916-14.502 43.428 43.428 0 00-16.236-4.282c-.2-.06-.412-.093-.631-.093l-.151-.002c-3.185-.034-5.016.087-8.242.444zM4.375 87.5c0 21.711 17.663 39.375 39.375 39.375S83.125 109.211 83.125 87.5c0-21.712-17.663-39.375-39.375-39.375S4.375 65.788 4.375 87.5z" fill="#fff"/><path d="M67.813 45.938c0-1.209.979-2.188 2.187-2.188l-24.213-.002.15.002c.22 0 .432.033.632.093a43.428 43.428 0 0116.236 4.282H70a2.188 2.188 0 01-2.188-2.188zM105 83.125a2.188 2.188 0 112.144-1.76 2.187 2.187 0 01-2.144 1.76zm-37.187-52.5a2.188 2.188 0 110-4.375 2.188 2.188 0 010 4.375zM51.21 59.063H37.186a2.187 2.187 0 00-2.187 2.187v24.063h-6.563a2.188 2.188 0 000 4.374H35v4.376h-6.563a2.188 2.188 0 000 4.374H35v15.313a2.188 2.188 0 004.375 0V98.437H52.5a2.188 2.188 0 000-4.374H39.375v-4.376h11.834c7.949 0 14.416-6.467 14.416-14.415v-1.794c0-7.948-6.467-14.415-14.416-14.415zm10.04 16.209c0 5.536-4.504 10.04-10.04 10.04H39.374V63.439h11.834c5.537 0 10.041 4.504 10.041 10.04v1.794z" fill="#E91609"/></svg>