<svg width="140" height="140" fill="none" xmlns="http://www.w3.org/2000/svg"><g clip-path="url(#clip0_983_989)" fill-rule="evenodd" clip-rule="evenodd"><path d="M119.733 12.694c2.306-.42 4.476.153 6.274 1.654 1.799 1.502 2.75 3.535 2.751 5.878v52.27c0 16.436-5.992 32.34-16.873 44.781-10.773 12.319-25.537 20.381-41.571 22.701a2.192 2.192 0 01-.627 0c-16.034-2.32-30.798-10.382-41.571-22.701-10.881-12.441-16.873-28.345-16.873-44.781v-52.27c0-2.343.95-4.376 2.75-5.877 1.798-1.502 3.968-2.075 6.274-1.655C35.594 15.476 49.153 9.29 66.317 1.46l.486-.221L69.095.196a2.188 2.188 0 011.81 0c.874.397 1.738.791 2.594 1.182l.183.083c17.165 7.83 30.723 14.014 46.051 11.232zM70 135.6c31.025-4.647 54.382-31.719 54.382-63.105v-52.27c0-1.033-.385-1.857-1.178-2.519-.793-.662-1.672-.893-2.689-.709-2.87.521-5.665.762-8.415.762-13.23 0-25.441-5.57-40.227-12.315l-.006-.003-.152-.069L70 4.591l-1.867.851-.009.004c-17.857 8.146-31.962 14.58-48.64 11.552a3.664 3.664 0 00-.653-.061c-.747 0-1.417.255-2.035.77-.793.662-1.178 1.486-1.178 2.519v52.27c0 31.386 23.357 58.459 54.382 63.105zm-4.28-60.837l25.224-25.476c2.92-2.936 7.679-2.95 10.612-.033a7.45 7.45 0 012.212 5.299 7.45 7.45 0 01-2.182 5.31c-3.588 3.623-7.173 7.26-10.758 10.897-6.469 6.56-13.157 13.344-19.778 19.964a7.468 7.468 0 01-5.315 2.202 7.467 7.467 0 01-5.315-2.202L43.442 73.747a7.466 7.466 0 01-2.202-5.315c0-2.008.782-3.896 2.202-5.315a7.467 7.467 0 015.315-2.202c2.008 0 3.895.782 5.315 2.202l11.647 11.647zm22.184-7.27c3.524-3.574 7.047-7.147 10.576-10.71a3.109 3.109 0 00.913-2.217 3.107 3.107 0 00-.922-2.209 3.13 3.13 0 00-4.422.012L65.734 80.967 50.978 66.211a3.121 3.121 0 00-2.222-.92 3.12 3.12 0 00-2.221.92 3.12 3.12 0 00-.92 2.221c0 .84.327 1.628.92 2.221l16.979 16.979c.593.593 1.382.92 2.221.92a3.12 3.12 0 002.221-.92c6.58-6.58 13.232-13.326 19.668-19.853l.088-.09.192-.195z" fill="#E91609"/><path d="M115.501 24.2c-16.212.977-31.29-5.906-44.592-11.98a2.187 2.187 0 00-1.818 0l-.002.002C56.644 17.904 42.648 24.295 27.62 24.294c-1.035 0-2.077-.03-3.121-.093a2.185 2.185 0 00-2.32 2.183v46.112c0 13.41 4.806 26.494 13.532 36.839 8.702 10.317 20.745 17.263 33.912 19.558a2.157 2.157 0 00.752 0c13.167-2.295 25.21-9.241 33.912-19.558 8.726-10.345 13.532-23.429 13.532-36.84v-46.11a2.188 2.188 0 00-2.319-2.184zm-45.5 100.316c24.794-4.513 43.444-26.808 43.444-52.02V28.66c-16.01.307-30.522-6.148-43.445-12.045-12.922 5.897-27.444 12.35-43.445 12.045v43.836c0 25.213 18.65 47.507 43.445 52.02z" fill="#fff"/></g><defs><clipPath id="clip0_983_989"><path fill="#fff" d="M0 0h140v140H0z"/></clipPath></defs></svg>