<svg width="140" height="140" fill="none" xmlns="http://www.w3.org/2000/svg"><g clip-path="url(#clip0_977_1159)"><path fill-rule="evenodd" clip-rule="evenodd" d="M124.622 27.837c-6.375-8.346-11.826-11.852-20.836-4.99l-6.487 4.94c-1.557 1.18-7.252 1.576-12.773 1.96l-.035.002-.64.045c-.218.016-.436.032-.653.046l-7.451.86c-1.239.238-2.433.513-3.515.898l-16.56 5.992c-.664.101-1.281.185-1.846.262l-.154.021-.012.002c-4.122.568-6.606.91-7.915 4.21-.927 2.386-.23 5.35 1.844 7.736 3.44 3.974 9.367 5.441 15.663 3.963L72.6 52.59c3.8-.5 7.07 2.123 10.232 4.66l.046.036 27.734 21.737 3.323-1.854c5.11-2.237 10.716-5.43 15.368-11.357l4.587-3.502c3.698-2.819 5.616-5.542 6.028-8.58.552-4.12-1.724-8.101-5.321-12.817l-9.975-13.076zm-65.461 87.605l2.504-2.707c1.624-2.045 2.045-4.89 1.064-7.615-1.038-2.798-3.432-5.067-6.26-5.939a9.253 9.253 0 00-.913-.211l-.078-.016c.578-1.816.551-3.844-.147-5.808-1.11-3.1-3.752-5.616-6.9-6.551a9.405 9.405 0 00-4.007-.303 9.4 9.4 0 00-.506-3.964c-1.101-3.12-3.752-5.631-6.918-6.56a9.322 9.322 0 00-4-.303 9.17 9.17 0 00-.506-3.963c-1.09-3.12-3.743-5.623-6.909-6.56-3.22-.964-6.532-.176-8.725 2.018l-2.63 2.765-3.011 3.178c-2.192 2.3-2.835 5.722-1.688 8.926 1.101 3.111 3.752 5.623 6.918 6.57a9.754 9.754 0 002.716.394c.387 0 .758-.05 1.13-.098l.154-.02a9.425 9.425 0 00.495 3.992c1.11 3.098 3.761 5.615 6.918 6.56a9.694 9.694 0 002.725.394c.39 0 .778-.052 1.154-.102l.122-.016a9.51 9.51 0 00.495 4.001c1.112 3.102 3.763 5.607 6.928 6.549a9.562 9.562 0 002.717.395c.551 0 1.1-.051 1.633-.154.082.64.22 1.285.46 1.915 1.018 2.801 3.42 5.077 6.257 5.939a8.714 8.714 0 002.579.396c2.073 0 4.027-.78 5.411-2.248h.011v-.008l.807-.846zm-46.18-34.846c-.679-1.9-.339-3.881.89-5.176l6.13-6.458c.623-.643 2.598-1.094 4.551-.516 2.065.617 3.78 2.246 4.496 4.277.68 1.91.338 3.9-.88 5.176v.01l-6.147 6.458c-.606.643-2.588 1.084-4.533.515-2.066-.615-3.79-2.25-4.508-4.286zM24.394 91.44c-.669-1.916-.33-3.91.89-5.202l5.533-5.808c1.23-1.293 3.194-1.724 5.148-1.145 2.064.606 3.78 2.24 4.506 4.267.68 1.908.331 3.887-.89 5.191l-5.524 5.808c-1.23 1.284-3.2 1.734-5.156 1.156-2.056-.613-3.783-2.257-4.507-4.267zm11.416 10.83c-.671-1.92-.322-3.9.898-5.194l5.524-5.808v-.012c1.23-1.282 3.201-1.73 5.157-1.143 2.046.606 3.78 2.248 4.497 4.266.678 1.908.338 3.9-.88 5.19l-5.552 5.82c-1.219 1.276-3.185 1.714-5.128 1.147-2.057-.616-3.79-2.249-4.516-4.266zm11.727 8.678a4.661 4.661 0 01-.258-2.155l.837-.881.002-.006v-.002l.007-.002v-.011l5.093-5.337a4.782 4.782 0 012.174.137c1.761.543 3.257 1.962 3.9 3.698.578 1.603.32 3.259-.66 4.303l-2.937 3.071c-.992 1.048-2.623 1.397-4.267.881-1.77-.54-3.266-1.954-3.9-3.696h.008zm63.28-36.436l-.01.009-25.635-20.08c-3.414-2.754-7.688-6.15-13.038-5.478l-9.523 1.23c-7.605 1.77-11.303-1.67-12.257-2.762-1.156-1.34-1.624-2.907-1.193-4 .469-1.185.936-1.359 5.01-1.928.678-.092 1.413-.192 2.23-.312l.086-.02c.09-.019.178-.039.262-.074l16.735-6.045c3.01-1.084 7.203-1.376 11.258-1.653 5.368-.368 10.883-.764 14.847-2.936l26.066 33.965c-4.488 5.294-9.766 8.004-14.838 10.084zm20.853-15.127l-3.332 2.54-25.761-33.56 3.422-2.598c6.249-4.762 9.487-3.87 15.707 4.303l9.974 13.055c3.606 4.727 4.936 7.653 4.605 10.101-.275 2.02-1.742 3.973-4.615 6.16z" fill="#E91609"/><path fill-rule="evenodd" clip-rule="evenodd" d="M124.622 27.837c-6.375-8.346-11.826-11.852-20.836-4.99l-6.487 4.94c-1.557 1.18-7.252 1.576-12.773 1.96l-.035.002-.64.045c-.218.016-.436.032-.653.046l-7.451.86c-1.239.238-2.433.513-3.515.898l-16.56 5.992c-.664.101-1.281.185-1.846.262l-.154.021-.012.002c-4.122.568-6.606.91-7.915 4.21-.927 2.386-.23 5.35 1.844 7.736 3.44 3.974 9.367 5.441 15.663 3.963L72.6 52.59c3.8-.5 7.07 2.123 10.232 4.66l.046.036 27.734 21.737 3.323-1.854c5.11-2.237 10.716-5.43 15.368-11.357l4.587-3.502c3.698-2.819 5.616-5.542 6.028-8.58.552-4.12-1.724-8.101-5.321-12.817l-9.975-13.076zm-65.461 87.605l2.504-2.707c1.624-2.045 2.045-4.89 1.064-7.615-1.038-2.798-3.432-5.067-6.26-5.939a9.253 9.253 0 00-.913-.211l-.078-.016c.578-1.816.551-3.844-.147-5.808-1.11-3.1-3.752-5.616-6.9-6.551a9.405 9.405 0 00-4.007-.303 9.4 9.4 0 00-.506-3.964c-1.101-3.12-3.752-5.631-6.918-6.56a9.322 9.322 0 00-4-.303 9.17 9.17 0 00-.506-3.963c-1.09-3.12-3.743-5.623-6.909-6.56-3.22-.964-6.532-.176-8.725 2.018l-2.63 2.765-3.011 3.178c-2.192 2.3-2.835 5.722-1.688 8.926 1.101 3.111 3.752 5.623 6.918 6.57a9.754 9.754 0 002.716.394c.387 0 .758-.05 1.13-.098l.154-.02a9.425 9.425 0 00.495 3.992c1.11 3.098 3.761 5.615 6.918 6.56a9.694 9.694 0 002.725.394c.39 0 .778-.052 1.154-.102l.122-.016a9.51 9.51 0 00.495 4.001c1.112 3.102 3.763 5.607 6.928 6.549a9.562 9.562 0 002.717.395c.551 0 1.1-.051 1.633-.154.082.64.22 1.285.46 1.915 1.018 2.801 3.42 5.077 6.257 5.939a8.714 8.714 0 002.579.396c2.073 0 4.027-.78 5.411-2.248h.011v-.008l.807-.846zm-46.18-34.846c-.679-1.9-.339-3.881.89-5.176l6.13-6.458c.623-.643 2.598-1.094 4.551-.516 2.065.617 3.78 2.246 4.496 4.277.68 1.91.338 3.9-.88 5.176v.01l-6.147 6.458c-.606.643-2.588 1.084-4.533.515-2.066-.615-3.79-2.25-4.508-4.286zM24.394 91.44c-.669-1.916-.33-3.91.89-5.202l5.533-5.808c1.23-1.293 3.194-1.724 5.148-1.145 2.064.606 3.78 2.24 4.506 4.267.68 1.908.331 3.887-.89 5.191l-5.524 5.808c-1.23 1.284-3.2 1.734-5.156 1.156-2.056-.613-3.783-2.257-4.507-4.267zm11.416 10.83c-.671-1.92-.322-3.9.898-5.194l5.524-5.808v-.012c1.23-1.282 3.201-1.73 5.157-1.143 2.046.606 3.78 2.248 4.497 4.266.678 1.908.338 3.9-.88 5.19l-5.552 5.82c-1.219 1.276-3.185 1.714-5.128 1.147-2.057-.616-3.79-2.249-4.516-4.266zm11.727 8.678a4.661 4.661 0 01-.258-2.155l.837-.881.002-.006v-.002l.007-.002v-.011l5.093-5.337a4.782 4.782 0 012.174.137c1.761.543 3.257 1.962 3.9 3.698.578 1.603.32 3.259-.66 4.303l-2.937 3.071c-.992 1.048-2.623 1.397-4.267.881-1.77-.54-3.266-1.954-3.9-3.696h.008zm63.28-36.436l-.01.009-25.635-20.08c-3.414-2.754-7.688-6.15-13.038-5.478l-9.523 1.23c-7.605 1.77-11.303-1.67-12.257-2.762-1.156-1.34-1.624-2.907-1.193-4 .469-1.185.936-1.359 5.01-1.928.678-.092 1.413-.192 2.23-.312l.086-.02c.09-.019.178-.039.262-.074l16.735-6.045c3.01-1.084 7.203-1.376 11.258-1.653 5.368-.368 10.883-.764 14.847-2.936l26.066 33.965c-4.488 5.294-9.766 8.004-14.838 10.084zm20.853-15.127l-3.332 2.54-25.761-33.56 3.422-2.598c6.249-4.762 9.487-3.87 15.707 4.303l9.974 13.055c3.606 4.727 4.936 7.653 4.605 10.101-.275 2.02-1.742 3.973-4.615 6.16z" fill="#E91609"/><path fill-rule="evenodd" clip-rule="evenodd" d="M83.198 29.84l-1.716-.726c-6.698-2.852-9.744-4.147-17.479-3.512-1.56.137-3.312.322-5.156.514-5.028.532-13.892 1.45-17.01 1.101-.102-.137-.203-.284-.349-.403l-4.881-3.816c-8.91-6.983-14.415-3.551-20.91 4.716L5.558 40.643C2.393 44.676-.46 49.01.062 53.375c.377 3.057 2.248 5.81 4.082 7.24l6.974 5.462c1.432 1.138 2.412 2.32 3.111 3.648l2.63-2.765a14.209 14.209 0 00-2.41-2.825l26.22-33.426c2.854.523 8.45.102 18.562-.955 1.825-.183 3.568-.366 5.093-.512 5.109-.425 7.642.008 11.423 1.458l7.45-.86zM34.35 25.875c-6.176-4.832-9.423-3.99-15.772 4.103L8.441 42.905c-3.663 4.66-5.038 7.57-4.736 10.029.24 2.015 1.679 4 3.103 5.119l4.816 3.762 26.112-33.289-3.386-2.651z" fill="#fff"/><path d="M59.161 115.442l5.55 4.332c.642.505 2.231 1.018 3.871 1.018a8.507 8.507 0 003.66-.855c2.689-1.282 4.736-3.887 5.331-6.787a9.2 9.2 0 00.138-1.009 8.584 8.584 0 001.816.211c1.322 0 2.67-.294 3.964-.891 2.991-1.394 5.248-4.267 5.871-7.496a9.86 9.86 0 00.166-2.119 8.469 8.469 0 002.624.412c1.322 0 2.68-.294 3.973-.89 2.98-1.386 5.23-4.266 5.871-7.497.111-.56.157-1.119.166-1.668a8.421 8.421 0 003.846.923c1.33 0 2.679-.294 3.963-.89 2.981-1.383 5.239-4.256 5.882-7.494.552-2.826-.183-5.607-1.918-7.573l-3.323 1.854c1.404 1.094 2.037 3.012 1.653 4.99-.422 2.116-1.889 3.987-3.836 4.885-1.844.864-3.854.709-4.561.159L89.684 77.964a1.834 1.834 0 00-2.568.312 1.84 1.84 0 00.311 2.579l9.332 7.304c1.404 1.1 2.036 3.008 1.652 4.99-.421 2.11-1.89 3.982-3.826 4.89-1.853.851-3.872.707-5.265-.394l-9.342-7.304a1.833 1.833 0 00-2.569.314 1.833 1.833 0 00.312 2.568l6.423 5.037c1.394 1.101 2.019 3.009 1.633 4.991-.412 2.098-1.88 3.974-3.826 4.881-1.853.853-3.872.705-5.265-.396h-.01l-6.395-5.019a1.846 1.846 0 00-2.58.312 1.835 1.835 0 00.314 2.57l5.909 4.624a4.78 4.78 0 01.065 2.17c-.377 1.809-1.644 3.434-3.314 4.232-1.55.734-3.21.643-4.358-.249l-4.652-3.641-2.504 2.707z" fill="#fff"/></g><defs><clipPath id="clip0_977_1159"><path fill="#fff" d="M0 0h140v140H0z"/></clipPath></defs></svg>